<svg width="16.000000" height="15.333191" viewBox="0 0 16 15.3332" fill="none" xmlns="http://www.w3.org/2000/svg" xmlns:xlink="http://www.w3.org/1999/xlink">
	<desc>
			Created with Pixso.
	</desc>
	<defs/>
	<path id="Vector (Stroke)" d="M4.66 13.99C4.66 13.26 5.26 12.66 6 12.66C6.73 12.66 7.33 13.26 7.33 13.99C7.33 14.73 6.73 15.33 6 15.33C5.26 15.33 4.66 14.73 4.66 13.99Z" fill="#429F3A" fill-opacity="1.000000" fill-rule="evenodd"/>
	<path id="Vector (Stroke)" d="M12 13.99C12 13.26 12.59 12.66 13.33 12.66C14.06 12.66 14.66 13.26 14.66 13.99C14.66 14.73 14.06 15.33 13.33 15.33C12.59 15.33 12 14.73 12 13.99Z" fill="#429F3A" fill-opacity="1.000000" fill-rule="evenodd"/>
	<path id="Vector (Stroke)" d="M0 0.66C0 0.29 0.29 0 0.66 0L3.33 0C3.65 0 3.92 0.22 3.98 0.53L4.54 3.33L15.33 3.33C15.53 3.33 15.72 3.42 15.84 3.57C15.97 3.72 16.02 3.92 15.98 4.12L14.92 9.72C14.82 10.18 14.57 10.59 14.21 10.89C13.84 11.18 13.39 11.34 12.92 11.33L6.45 11.33C5.99 11.34 5.53 11.18 5.17 10.89C4.8 10.59 4.55 10.18 4.46 9.72L3.35 4.15C3.34 4.14 3.34 4.12 3.34 4.1L2.78 1.33L0.66 1.33C0.29 1.33 0 1.03 0 0.66ZM4.81 4.66L5.77 9.46C5.8 9.61 5.88 9.75 6 9.85C6.13 9.95 6.28 10 6.44 10L6.45 10L12.93 10L12.94 10C13.1 10 13.25 9.95 13.37 9.85C13.49 9.75 13.58 9.61 13.61 9.46L14.52 4.66L4.81 4.66Z" fill="#429F3A" fill-opacity="1.000000" fill-rule="evenodd"/>
</svg>
